<?xml version="1.0" encoding="UTF-8"?>
<svg width="824px" height="81px" viewBox="0 0 824 81" version="1.1" xmlns="http://www.w3.org/2000/svg" xmlns:xlink="http://www.w3.org/1999/xlink">
    <!-- Generator: Sketch 51.2 (57519) - http://www.bohemiancoding.com/sketch -->
    <title>logotype-color</title>
    <desc>Created with Sketch.</desc>
    <defs></defs>
    <g id="logotype-color" stroke="none" stroke-width="1" fill="none" fill-rule="evenodd">
        <g id="logotipo-02" fill="#0092FF" fill-rule="nonzero">
            <path d="M41.801,1.4 L71.77,1.4 L71.77,16.608 C71.77,16.608 45.449,16.608 44.833,16.608 C36.895,16.608 30.628,18.51 26.034,22.304 C21.443,26.104 19.146,31.866 19.146,39.608 C19.146,47.344 21.443,53.112 26.034,56.912 C30.628,60.706 36.894,62.605 44.833,62.605 C47.795,62.605 71.77,62.605 71.77,62.605 L71.77,79.168 C71.77,79.168 43.826,79.168 41.801,79.168 C34.95,79.168 28.917,78.193 23.703,76.236 C18.488,74.283 14.13,71.58 10.624,68.123 C7.122,64.668 4.476,60.568 2.683,55.835 C0.891,51.108 0,45.917 0,40.286 C0,34.649 0.891,29.464 2.683,24.731 C4.476,19.998 7.122,15.903 10.624,12.446 C14.13,8.991 18.488,6.285 23.703,4.332 C28.917,2.379 34.95,1.4 41.801,1.4 Z" id="Shape"></path>
            <path d="M150.927,26.042 C150.927,31.257 149.47,35.809 146.551,39.7 C143.634,43.593 139.564,46.554 134.349,48.575 L158.378,79.169 C158.378,79.169 158.836,79.169 157.513,79.169 L138.743,79.169 L134.841,79.169 L116.462,54.079 C115.639,53.041 114.176,52.19 113.216,52.19 C112.252,52.19 111.461,53.279 111.461,54.598 L111.461,79.168 L109.053,79.168 L94.72,79.168 L92.309,79.168 L92.309,3.809 C92.309,2.486 93.397,1.401 94.72,1.401 L114.66,1.401 C115.986,1.401 118.151,1.463 119.473,1.535 C119.473,1.535 126.369,1.91 130.494,2.921 C134.621,3.935 138.201,5.448 141.239,7.476 C144.275,9.504 146.647,12.049 148.363,15.123 C150.07,18.202 150.927,21.835 150.927,26.042 Z M132.481,26.39 C132.481,22.891 131.12,20.301 128.393,18.627 C125.666,16.953 121.855,16.115 116.951,16.115 L113.87,16.115 C112.544,16.115 111.461,17.2 111.461,18.523 L111.461,35.541 C111.461,36.864 112.51,37.949 113.798,37.949 C115.083,37.949 117.21,37.83 118.528,37.684 C118.528,37.684 125.28,36.941 128.161,34.911 C131.035,32.889 132.481,30.053 132.481,26.39 Z" id="Shape"></path>
            <path d="M207.606,48.771 C207,49.949 206.501,51.994 206.501,53.317 L206.501,79.169 L204.093,79.169 L189.759,79.169 L187.351,79.169 L187.351,53.317 C187.351,51.994 186.853,49.949 186.246,48.771 L162.886,3.541 C162.28,2.364 162.865,1.4 164.189,1.4 L179.806,1.4 C181.129,1.4 182.66,2.387 183.204,3.597 L195.935,31.902 C196.479,33.112 197.368,33.112 197.914,31.902 L210.648,3.597 C211.192,2.387 212.72,1.4 214.046,1.4 L229.661,1.4 C230.986,1.4 231.575,2.363 230.966,3.541 L207.606,48.771 Z" id="Shape"></path>
            <path d="M304.702,26.741 C304.702,30.87 303.806,34.564 302.015,37.83 C300.223,41.101 297.758,43.849 294.607,46.066 C291.449,48.284 287.733,49.975 283.452,51.144 C279.171,52.309 274.538,52.895 269.556,52.895 C268.461,52.895 267.57,53.98 267.57,55.303 L267.57,79.168 L265.162,79.168 L250.828,79.168 L248.42,79.168 L248.42,3.809 C248.42,2.486 249.506,1.401 250.828,1.401 L268.43,1.401 C269.753,1.401 271.923,1.458 273.242,1.532 C273.242,1.532 280.278,1.91 284.44,2.921 C288.609,3.935 292.188,5.472 295.184,7.535 C298.185,9.598 300.518,12.223 302.193,15.414 C303.868,18.612 304.702,22.382 304.702,26.741 Z M286.256,26.854 C286.256,19.695 281.156,16.115 270.957,16.115 L269.978,16.115 C268.652,16.115 267.57,17.2 267.57,18.523 L267.57,35.779 C267.57,37.102 268.278,38.187 269.146,38.187 C270.014,38.187 271.797,38.062 273.11,37.914 C273.11,37.914 279.635,37.173 282.287,35.148 C284.927,33.127 286.256,30.362 286.256,26.854 Z" id="Shape"></path>
            <path d="M377.962,1.4 C379.283,1.397 380.37,2.483 380.37,3.805 L380.37,14.17 C380.37,15.496 379.283,16.578 377.962,16.578 L361.874,16.578 C360.552,16.578 359.466,17.666 359.466,18.987 L359.466,79.169 L357.058,79.169 L342.725,79.169 L340.317,79.169 L340.317,18.987 C340.317,17.667 339.235,16.578 337.909,16.578 L321.819,16.578 C320.498,16.578 319.411,15.496 319.411,14.17 L319.411,3.809 C319.411,2.486 320.498,1.401 321.819,1.401 L377.962,1.401 L377.962,1.4 Z" id="Shape"></path>
            <path d="M472.96,40.286 C472.96,45.81 472.067,51.008 470.278,55.868 C468.488,60.735 465.901,64.999 462.51,68.656 C459.128,72.313 454.984,75.212 450.076,77.352 C445.172,79.493 439.564,80.566 433.262,80.566 C426.958,80.566 421.333,79.493 416.392,77.352 C411.445,75.211 407.283,72.313 403.893,68.656 C400.51,64.999 397.94,60.735 396.19,55.868 C394.439,51.008 393.565,45.81 393.565,40.286 C393.565,34.756 394.439,29.565 396.19,24.695 C397.94,19.831 400.51,15.573 403.893,11.91 C407.283,8.25 411.445,5.351 416.392,3.21 C421.334,1.073 426.959,0 433.263,0 C439.566,0 445.173,1.073 450.077,3.211 C454.984,5.352 459.129,8.251 462.511,11.911 C465.902,15.574 468.489,19.831 470.279,24.696 C472.067,29.565 472.96,34.756 472.96,40.286 Z M433.263,65.386 C436.611,65.386 439.566,64.767 442.141,63.519 C444.703,62.273 446.868,60.542 448.621,58.325 C450.37,56.107 451.672,53.458 452.528,50.384 C453.384,47.31 453.812,43.942 453.812,40.287 C453.812,36.624 453.384,33.259 452.528,30.184 C451.672,27.109 450.37,24.463 448.621,22.243 C446.867,20.025 444.703,18.295 442.141,17.049 C439.566,15.806 436.611,15.182 433.263,15.182 C429.831,15.182 426.857,15.807 424.331,17.049 C421.798,18.295 419.657,20.025 417.903,22.243 C416.161,24.464 414.852,27.11 413.996,30.184 C413.141,33.258 412.712,36.623 412.712,40.287 C412.712,43.941 413.141,47.309 413.996,50.384 C414.852,53.458 416.161,56.108 417.903,58.325 C419.657,60.543 421.798,62.273 424.331,63.519 C426.856,64.767 429.831,65.386 433.263,65.386 Z" id="Shape"></path>
            <path d="M493.867,79.166 L493.867,22.02 C493.867,8.334 497.244,1.398 511.872,1.398 L540.379,1.398 C541.705,1.398 542.787,2.483 542.787,3.806 L542.787,14.848 C542.787,16.174 541.705,17.256 540.379,17.256 L515.422,17.256 C514.103,17.256 513.014,18.341 513.014,19.664 L513.014,34.214 L532.631,34.214 C533.957,34.214 535.039,35.297 535.039,36.622 L535.039,46.983 C535.039,48.306 533.957,49.391 532.631,49.391 L513.014,49.391 L513.014,51.8 L513.014,79.164 L493.867,79.164 L493.867,79.166 Z" id="Shape"></path>
            <path d="M608.339,66.391 C607.929,65.13 606.513,64.102 605.187,64.102 L580.224,64.102 C578.898,64.102 577.49,65.136 577.085,66.397 L573.759,79.167 L554.138,79.167 L581.413,3.658 C581.876,2.415 583.341,1.398 584.665,1.398 L600.87,1.398 C602.19,1.398 603.653,2.415 604.116,3.658 L631.391,79.167 L611.75,79.167 L608.339,66.391 Z M583.423,46.625 C583.036,47.889 583.804,48.923 585.13,48.923 L600.28,48.923 C601.606,48.923 602.374,47.886 601.993,46.619 L593.46,18.422 C593.081,17.15 592.444,17.15 592.058,18.416 L583.423,46.625 Z" id="Shape"></path>
            <path d="M682.322,1.4 L712.293,1.4 L712.293,16.608 C712.293,16.608 685.975,16.608 685.355,16.608 C677.417,16.608 671.15,18.51 666.558,22.304 C661.968,26.104 659.673,31.866 659.673,39.608 C659.673,47.344 661.968,53.112 666.558,56.912 C671.15,60.706 677.417,62.605 685.355,62.605 C688.316,62.605 712.293,62.605 712.293,62.605 L712.293,79.168 C712.293,79.168 684.352,79.168 682.322,79.168 C675.472,79.168 669.443,78.193 664.228,76.236 C659.013,74.283 654.654,71.58 651.146,68.123 C647.644,64.668 644.998,60.568 643.208,55.835 C641.411,51.107 640.526,45.916 640.526,40.285 C640.526,34.648 641.411,29.463 643.208,24.73 C644.997,19.997 647.644,15.902 651.146,12.445 C654.654,8.99 659.013,6.284 664.228,4.331 C669.443,2.378 675.472,1.4 682.322,1.4 Z" id="Shape"></path>
            <path d="M750.169,79.166 L747.761,79.166 L733.425,79.166 L731.017,79.166 L731.017,3.806 C731.017,2.483 732.105,1.398 733.425,1.398 L747.761,1.398 C749.087,1.398 750.169,2.483 750.169,3.806 L750.169,79.166 Z" id="Shape"></path>
            <path d="M792.019,1.397 C793.337,1.397 794.427,2.482 794.427,3.805 L794.427,61.58 C794.427,62.903 795.509,63.988 796.835,63.988 L820.62,63.988 C821.946,63.985 823.028,65.07 823.028,66.393 L823.028,79.163 L820.62,79.166 L777.682,79.166 L775.274,79.166 L775.274,3.806 C775.274,2.483 776.356,1.398 777.682,1.398 L792.019,1.398 L792.019,1.397 Z" id="Shape"></path>
        </g>
    </g>
</svg>