<?xml version="1.0" encoding="UTF-8"?>
<svg width="96px" height="31px" viewBox="0 0 96 31" version="1.1" xmlns="http://www.w3.org/2000/svg" xmlns:xlink="http://www.w3.org/1999/xlink">
    <!-- Generator: Sketch 48 (47235) - http://www.bohemiancoding.com/sketch -->
    <title>Byteball Copy</title>
    <desc>Created with Sketch.</desc>
    <defs></defs>
    <g id="Byteball" stroke="none" stroke-width="1" fill="none" fill-rule="evenodd" transform="translate(-672.000000, -249.000000)">
        <path d="M685.439788,267.019642 C685.439788,267.830141 685.287128,268.590667 684.981803,269.301241 C684.676478,270.011816 684.257356,270.63356 683.724425,271.166491 C683.191494,271.699422 682.566975,272.118544 681.850848,272.423869 C681.134722,272.729194 680.371421,272.881854 679.560922,272.881854 L672,272.881854 L672,249 L679.560922,249 C680.371421,249 681.134722,249.15266 681.850848,249.457985 C682.566975,249.76331 683.191494,250.182432 683.724425,250.715363 C684.257356,251.248294 684.676478,251.872814 684.981803,252.58894 C685.287128,253.305066 685.439788,254.068367 685.439788,254.878866 L685.439788,255.112023 C685.439788,255.678262 685.364846,256.219512 685.214959,256.735789 C685.065072,257.252066 684.851348,257.732252 684.573779,258.176361 C684.296211,258.62047 683.968686,259.022938 683.591193,259.383777 C683.2137,259.744616 682.791802,260.04716 682.325488,260.29142 C682.791802,260.535681 683.2137,260.838225 683.591193,261.199064 C683.968686,261.559903 684.296211,261.965146 684.573779,262.414807 C684.851348,262.864468 685.065072,263.347429 685.214959,263.863706 C685.364846,264.379983 685.439788,264.921233 685.439788,265.487472 L685.439788,267.019642 Z M683.29142,265.137738 C683.29142,264.604807 683.191497,264.107967 682.991648,263.647204 C682.791799,263.186441 682.517011,262.783973 682.167275,262.439788 C681.817539,262.095603 681.412295,261.823591 680.951532,261.623741 C680.490768,261.423892 679.993929,261.323969 679.460998,261.323969 L674.148368,261.323969 L674.148368,270.83341 L679.460998,270.83341 C679.993929,270.83341 680.490768,270.733487 680.951532,270.533638 C681.412295,270.333789 681.817539,270.061776 682.167275,269.717592 C682.517011,269.373407 682.791799,268.970939 682.991648,268.510176 C683.191497,268.049412 683.29142,267.552573 683.29142,267.019642 L683.29142,265.137738 Z M683.29142,254.878866 C683.29142,254.345935 683.191497,253.849096 682.991648,253.388332 C682.791799,252.927569 682.517011,252.522325 682.167275,252.172589 C681.817539,251.822853 681.412295,251.548065 680.951532,251.348216 C680.490768,251.148367 679.993929,251.048444 679.460998,251.048444 L674.148368,251.048444 L674.148368,259.275526 L679.460998,259.275526 C679.993929,259.275526 680.490768,259.175603 680.951532,258.975753 C681.412295,258.775904 681.817539,258.501116 682.167275,258.15138 C682.517011,257.801644 682.791799,257.3964 682.991648,256.935637 C683.191497,256.474874 683.29142,255.978034 683.29142,255.445103 L683.29142,254.878866 Z M691.618427,279.709999 L689.636599,279.709999 L692.66763,271.416301 L687.138497,255.828145 L689.186941,255.828145 L693.633562,268.751659 L693.700178,269.634322 L693.766794,268.751659 L698.196762,255.828145 L700.245205,255.828145 L691.618427,279.709999 Z M709.453024,272.881854 C708.831271,272.881854 708.245611,272.765277 707.696025,272.53212 C707.14644,272.298962 706.66903,271.976988 706.26378,271.566187 C705.858531,271.155386 705.536556,270.677976 705.297848,270.133942 C705.059139,269.589908 704.939786,269.007023 704.939786,268.385271 L704.939786,257.776665 L701.875448,257.776665 L701.875448,255.828145 L704.939786,255.828145 L704.939786,251.731258 L706.98823,251.398178 L706.98823,255.828145 L711.318273,255.828145 L711.318273,257.776665 L706.98823,257.776665 L706.98823,268.485195 C706.98823,268.829379 707.05207,269.148578 707.179751,269.4428 C707.307432,269.737023 707.482298,269.995157 707.704352,270.217212 C707.926407,270.439267 708.187317,270.614132 708.487091,270.741813 C708.786865,270.869495 709.108839,270.933334 709.453024,270.933334 L711.318273,270.933334 L711.318273,272.881854 L709.453024,272.881854 Z M725.525996,268.202076 C725.525996,268.890446 725.395541,269.539946 725.134627,270.150596 C724.873713,270.761246 724.515655,271.294169 724.060443,271.749381 C723.605231,272.204593 723.072308,272.562651 722.461658,272.823565 C721.851008,273.084479 721.201508,273.214934 720.513138,273.214934 L719.147509,273.214934 C718.45914,273.214934 717.80964,273.084479 717.19899,272.823565 C716.58834,272.562651 716.055417,272.204593 715.600205,271.749381 C715.144993,271.294169 714.786935,270.761246 714.526021,270.150596 C714.265107,269.539946 714.134652,268.890446 714.134652,268.202076 L714.134652,260.507923 C714.134652,259.819553 714.265107,259.170053 714.526021,258.559403 C714.786935,257.948753 715.144993,257.41583 715.600205,256.960618 C716.055417,256.505406 716.58834,256.147348 717.19899,255.886434 C717.80964,255.62552 718.45914,255.495065 719.147509,255.495065 L720.513138,255.495065 C721.201508,255.495065 721.851008,255.62552 722.461658,255.886434 C723.072308,256.147348 723.605231,256.505406 724.060443,256.960618 C724.515655,257.41583 724.873713,257.948753 725.134627,258.559403 C725.395541,259.170053 725.525996,259.819553 725.525996,260.507923 L725.525996,264.52154 L716.183095,264.52154 L716.183095,268.318655 C716.183095,268.729456 716.260813,269.11527 716.416251,269.476108 C716.57169,269.836947 716.782638,270.150595 717.049104,270.41706 C717.315569,270.683526 717.629217,270.894474 717.990056,271.049913 C718.350894,271.205351 718.736708,271.283069 719.147509,271.283069 L720.513138,271.283069 C720.923939,271.283069 721.309754,271.205351 721.670592,271.049913 C722.031431,270.894474 722.345079,270.683526 722.611544,270.41706 C722.87801,270.150595 723.088958,269.836947 723.244397,269.476108 C723.399835,269.11527 723.477553,268.729456 723.477553,268.318655 L723.477553,267.186182 L725.525996,267.519262 L725.525996,268.202076 Z M723.477553,260.391345 C723.477553,259.980544 723.399835,259.594729 723.244397,259.233891 C723.088958,258.873052 722.87801,258.559405 722.611544,258.292939 C722.345079,258.026473 722.031431,257.815525 721.670592,257.660087 C721.309754,257.504648 720.923939,257.42693 720.513138,257.42693 L719.147509,257.42693 C718.736708,257.42693 718.350894,257.504648 717.990056,257.660087 C717.629217,257.815525 717.315569,258.026473 717.049104,258.292939 C716.782638,258.559405 716.57169,258.873052 716.416251,259.233891 C716.260813,259.594729 716.183095,259.980544 716.183095,260.391345 L716.183095,262.922754 L723.477553,262.922754 L723.477553,260.391345 Z M741.014228,268.202076 C741.014228,268.890446 740.883773,269.539946 740.622859,270.150596 C740.361944,270.761246 740.003887,271.294169 739.548675,271.749381 C739.093463,272.204593 738.56054,272.562651 737.94989,272.823565 C737.339239,273.084479 736.689739,273.214934 736.00137,273.214934 L734.635741,273.214934 C733.947372,273.214934 733.297872,273.084479 732.687222,272.823565 C732.076571,272.562651 731.543648,272.204593 731.088436,271.749381 C730.633224,271.294169 730.275167,270.761246 730.014253,270.150596 C729.753338,269.539946 729.622883,268.890446 729.622883,268.202076 L729.622883,249 L731.671327,249 L731.671327,257.26039 C732.137642,256.705254 732.698321,256.272254 733.353382,255.961377 C734.008443,255.650501 734.719007,255.495065 735.485096,255.495065 L736.00137,255.495065 C736.689739,255.495065 737.339239,255.62552 737.94989,255.886434 C738.56054,256.147348 739.093463,256.505406 739.548675,256.960618 C740.003887,257.41583 740.361944,257.948753 740.622859,258.559403 C740.883773,259.170053 741.014228,259.819553 741.014228,260.507923 L741.014228,268.202076 Z M738.965784,260.391345 C738.965784,259.980544 738.888066,259.594729 738.732628,259.233891 C738.57719,258.873052 738.366241,258.559405 738.099776,258.292939 C737.83331,258.026473 737.519663,257.815525 737.158824,257.660087 C736.797985,257.504648 736.412171,257.42693 736.00137,257.42693 L734.635741,257.42693 C734.22494,257.42693 733.839126,257.504648 733.478287,257.660087 C733.117448,257.815525 732.803801,258.026473 732.537336,258.292939 C732.27087,258.559405 732.059921,258.873052 731.904483,259.233891 C731.749045,259.594729 731.671327,259.980544 731.671327,260.391345 L731.671327,268.318655 C731.671327,268.729456 731.749045,269.11527 731.904483,269.476108 C732.059921,269.836947 732.27087,270.150595 732.537336,270.41706 C732.803801,270.683526 733.117448,270.894474 733.478287,271.049913 C733.839126,271.205351 734.22494,271.283069 734.635741,271.283069 L736.00137,271.283069 C736.412171,271.283069 736.797985,271.205351 737.158824,271.049913 C737.519663,270.894474 737.83331,270.683526 738.099776,270.41706 C738.366241,270.150595 738.57719,269.836947 738.732628,269.476108 C738.888066,269.11527 738.965784,268.729456 738.965784,268.318655 L738.965784,260.391345 Z M754.872217,272.881854 L753.739744,271.183145 C753.273429,271.793795 752.690545,272.285083 751.991073,272.657025 C751.291601,273.028966 750.525524,273.214934 749.692819,273.214934 L749.176544,273.214934 C748.488175,273.214934 747.838675,273.084479 747.228025,272.823565 C746.617375,272.562651 746.084452,272.204593 745.62924,271.749381 C745.174028,271.294169 744.81597,270.761246 744.555056,270.150596 C744.294142,269.539946 744.163687,268.890446 744.163687,268.202076 L744.163687,268.035536 C744.163687,267.347167 744.294142,266.697667 744.555056,266.087017 C744.81597,265.476367 745.174028,264.943444 745.62924,264.488232 C746.084452,264.03302 746.617375,263.674962 747.228025,263.414048 C747.838675,263.153134 748.488175,263.022679 749.176544,263.022679 L753.506588,263.022679 L753.506588,260.391345 C753.506588,259.980544 753.42887,259.594729 753.273432,259.233891 C753.117993,258.873052 752.907045,258.559405 752.640579,258.292939 C752.374114,258.026473 752.060466,257.815525 751.699627,257.660087 C751.338789,257.504648 750.952975,257.42693 750.542173,257.42693 L749.343085,257.42693 C748.932284,257.42693 748.546469,257.504648 748.185631,257.660087 C747.824792,257.815525 747.511145,258.026473 747.244679,258.292939 C746.978213,258.559405 746.767265,258.873052 746.611827,259.233891 C746.456388,259.594729 746.37867,259.980544 746.37867,260.391345 L746.37867,261.007543 L744.330227,260.674463 L744.330227,260.507923 C744.330227,259.819553 744.460682,259.170053 744.721596,258.559403 C744.98251,257.948753 745.340568,257.41583 745.79578,256.960618 C746.250992,256.505406 746.783915,256.147348 747.394565,255.886434 C748.005215,255.62552 748.654715,255.495065 749.343085,255.495065 L750.542173,255.495065 C751.230543,255.495065 751.880043,255.62552 752.490693,255.886434 C753.101343,256.147348 753.634266,256.505406 754.089478,256.960618 C754.54469,257.41583 754.902748,257.948753 755.163662,258.559403 C755.424576,259.170053 755.555031,259.819553 755.555031,260.507923 L755.555031,272.881854 L754.872217,272.881854 Z M753.506588,264.621464 L749.176544,264.621464 C748.765743,264.621464 748.379929,264.699182 748.019091,264.85462 C747.658252,265.010058 747.344604,265.223783 747.078139,265.495799 C746.811673,265.767816 746.600725,266.084239 746.445286,266.445078 C746.289848,266.805917 746.21213,267.191731 746.21213,267.602532 L746.21213,268.318655 C746.21213,268.729456 746.289848,269.11527 746.445286,269.476108 C746.600725,269.836947 746.811673,270.150595 747.078139,270.41706 C747.344604,270.683526 747.658252,270.894474 748.019091,271.049913 C748.379929,271.205351 748.765743,271.283069 749.176544,271.283069 L750.542173,271.283069 C750.952975,271.283069 751.338789,271.205351 751.699627,271.049913 C752.060466,270.894474 752.374114,270.683526 752.640579,270.41706 C752.907045,270.150595 753.117993,269.836947 753.273432,269.476108 C753.42887,269.11527 753.506588,268.729456 753.506588,268.318655 L753.506588,264.621464 Z M759.387305,272.881854 L759.387305,249 L761.435748,249 L761.435748,272.881854 L759.387305,272.881854 Z M765.950836,272.881854 L765.950836,249 L767.999279,249 L767.999279,272.881854 L765.950836,272.881854 Z" id="Byteball-Copy" fill="#FFFFFF"></path>
    </g>
</svg>