<svg width="190" height="65" viewBox="0 0 190 65" xmlns="http://www.w3.org/2000/svg"><g fill="#0FC270" fill-rule="evenodd"><path d="M134.868 18.998l-.123 2.233a1.4 1.4 0 0 1-.674 1.116l-1.912 1.155 2.086.808c.431.167.751.535.857.986l.51 2.178 1.428-1.712c.29-.358.74-.549 1.2-.511l2.227.188-1.211-1.877a1.397 1.397 0 0 1-.11-1.362l.83-2.031-2.127.538c-.445.117-.92.008-1.268-.293l-1.713-1.416zm-.03 9.677a.953.953 0 0 1-.21-.404l-.673-2.854-2.733-1.064a.948.948 0 0 1-.15-1.694l2.494-1.54.177-2.916a.947.947 0 0 1 1.564-.665l2.226 1.915 2.84-.746a.948.948 0 0 1 1.115 1.283l-1.13 2.705 1.588 2.47a.948.948 0 0 1-.877 1.456l-2.945-.259-1.856 2.274a.948.948 0 0 1-1.447.02l.016.02zm8.451-22.976l-1.064.262a.686.686 0 0 1-.62-.156l-.815-.73-.079 1.093a.687.687 0 0 1-.34.543l-.947.55 1.007.424c.21.085.363.268.411.489l.231 1.07.706-.836a.684.684 0 0 1 .623-.246l1.07.098-.557-.92a.684.684 0 0 1-.044-.636l.418-1.005zm-5.322 1.332a.587.587 0 0 1 .2-.196l1.562-.912.134-1.802a.585.585 0 0 1 .972-.394l1.358 1.192 1.75-.421a.584.584 0 0 1 .675.802l-.728 1.658.952 1.54a.584.584 0 0 1-.555.889l-1.799-.179-1.17 1.381a.584.584 0 0 1-1.017-.254l-.378-1.783-1.676-.684a.584.584 0 0 1-.272-.85l-.008.013zm29.038 41.243l-.731-.817a.686.686 0 0 1-.153-.62l.262-1.062-1.002.443a.687.687 0 0 1-.64-.045l-.93-.578.098 1.088a.685.685 0 0 1-.238.592l-.837.707 1.07.23c.233.047.427.21.51.435l.415.99.551-.923a.684.684 0 0 1 .54-.337l1.085-.103zM163.33 44.2a.587.587 0 0 1 .268.085l1.537.95 1.655-.727a.585.585 0 0 1 .804.673l-.416 1.759 1.195 1.348a.584.584 0 0 1-.392.972l-1.806.135-.913 1.564a.584.584 0 0 1-1.045-.073l-.687-1.672-1.769-.385a.584.584 0 0 1-.253-1.017l1.397-1.17-.182-1.801a.584.584 0 0 1 .622-.64l-.015-.001zm-8.934-16.363L159.96 23l-.62 2.852a1.011 1.011 0 0 0 1.066 1.225l2.914-.21-4.605 4.002c-.809.714-5.896-1.66-4.318-3.032zm20.235-5.075c-.247.173.308 1.044.823 1.037a.942.942 0 0 0 .448-.123l2.63-1.507-2.893 14.166-1.454-1.787a.93.93 0 0 0-1.23-.155l-2.664 1.615.127-5.037a.929.929 0 0 0-1.117-.907l-3.514.742.372-4.484a.929.929 0 0 0-.993-.992l-4.224.241.92-4.108a.808.808 0 0 0 .024-.2.924.924 0 0 0-.025-.17l-.107-.208-.13-.15-.102-.117-.171-.13-.173-.088a.424.424 0 0 0-.182-.056l-4.684-.25 1.276-3.588a.929.929 0 0 0-.721-1.253l-5.054-.549 1.99-2.4a.932.932 0 0 0 .014-1.234l-2.16-2.012 14.886-1.106.216.248-1.961 2.655c-.203.265-.38.47-.25.775a.989.989 0 0 0 .367.443c.142.107.503.091.597.06 1.16-.364 2.771-3.2 2.897-3.388.273-.35.524-.718.235-1.054l-2.97-2.412 11.168-.71.15.173-1.289 1.94a.912.912 0 0 0 .034 1.08c.1.106.154.152.214.19a.693.693 0 0 0 .32.15l3.848.643.105 3.905a.928.928 0 0 0 1.34.803l1.927-.944-2.223 10.51-1.616-2.463c-.29-.334-.734-.487-1.12-.266-.21.152-2.829 1.721-3.901 2.472zm13.606-21.328l-2.486 11.727-1.582-1.82a.965.965 0 0 0-1.154-.234l-1.502.734-.099-3.333a.964.964 0 0 0-.799-.92l-3.286-.56.931-1.39a.969.969 0 0 0-.071-1.176l-1.916-2.204 11.964-.824zM176.71 37.759l2.989-14.102 1.05 1.208a.897.897 0 0 0 1.554-.401l2.157-10.19.857.989a.898.898 0 0 0 1.554-.403l2.925-13.783A.924.924 0 0 0 188.86 0l-14.064.968a.9.9 0 0 0-.615 1.483l.863.99-10.394.714a.9.9 0 0 0-.614 1.483l1.046 1.203-14.375 1.003a.9.9 0 0 0-.614 1.483L152.416 12l-2.335 2.56a.895.895 0 0 0 .508 1.496l5.38.86-1.323 3.397a.896.896 0 0 0 .782 1.218l3.65.213-7.113 6.183c-1.492 1.297 6.088 5.5 6.698 4.905l5.763-5.01-.306 3.644a.894.894 0 0 0 1.099.944l3.549-.832.105 5.446a.894.894 0 0 0 1.41.712l2.838-1.935 2.049 2.356a.896.896 0 0 0 1.552-.402l-.012.004z"/><path d="M164.297 33.516c-.448-.144-1.203.56-1.463.83-5.02 5.232-13.119 5.095-19.695 3.468 1.963-1.77 3.413-3.865 4.15-6.503.85-3.035 1.172-5.898 3.738-8.061.244-.206.721-.724.338-.992-.364-.255-1.195.403-1.424.595-2.186 1.843-3.404 4.095-4.069 6.845-.81 3.351-1.672 6.145-4.553 8.341-.097.074-1.186 1.038-.59 1.196 8.282 2.205 17.4 1.557 23.607-4.913.309-.322.4-.663-.04-.806m2.02-16.666c.024-5.82 9.87-7.587 10.204-1.004-.131 2.59-2.227 4.746-4.754 5.249-2.71.54-5.46-1.378-5.45-4.245zm1.947-1.004c-.025 3.884 6.075 5.662 6.31 1.004-.082-1.639-.987-3.087-2.575-3.663-2.024-.734-3.722.543-3.735 2.66zM130.64 46.881c.348.116.604.236.142.526-2.083 1.314-4.484 1.788-6.853 2.362a67.22 67.22 0 0 1-.661 2.618c-.933 3.369-2.088 7.383-4.923 9.687-1.98 1.607-6.606 3.185-8.307.366-1.015-1.682-.164-3.862.8-5.35 1.484-2.29 3.741-4.181 6.099-5.53 1.518-.868 3.135-1.516 4.802-2.023.299-1.323.587-2.649.908-3.963-1.403 1.211-3.066 2.06-4.952 2.254-2.423.25-3.015-1.053-2.82-2.755-2.036 1.913-5.796 3.763-7.394.481a10.375 10.375 0 0 1-.639-1.674c-1.647 1.817-3.908 3.833-6.522 3.673-1.813-.111-2.508-1.79-2.762-3.612-.982.97-2.04 1.853-3.19 2.608-2.454 1.612-7.676 3.312-9.66.165a275.063 275.063 0 0 0-5.545 2.86c-.824 3.703-1.648 7.688-3.866 10.843-1.81 2.574-5.182 4.702-8.46 4.088-3.917-.733-2.885-4.973-1.053-7.265 1.858-2.324 4.54-3.815 7.082-5.277a163.898 163.898 0 0 1 3.957-2.2c.154-.68.312-1.359.483-2.034a7.684 7.684 0 0 1-3.846.902c-1.177-.038-2.313-.48-3.025-1.251a17.41 17.41 0 0 1-1.864.48c-1.35.268-4.947.82-5.476-1.07-.567-2.022 2.487-4.046 1.598-6.025-1.191-2.655-7.083 5.476-7.866 6.726-.345.551-2.525.753-2.336.412.886-1.598 1.802-3.64 1.927-5.603-1.447 2.152-2.939 4.191-5.79 4.703-1.486.267-3.124.026-3.439-1.695a3.64 3.64 0 0 1-.05-.829c-.996 1.145-2.098 2.16-3.533 2.679-2.112.766-4.585.339-4.198-2.408.602-4.261 7.302-7.468 10.72-4.526.099.085.013.213-.167.347.165.029.263.109.232.27-.19.992-.595 1.933-.662 2.951-.07 1.093.438 2.895 1.927 2.088 1.17-.633 2.002-2.137 2.706-3.208.658-1.004 1.295-2.014 2.064-2.937.248-.297 2.046-.97 2.256-.401.355.962.394 2.014.238 3.074.825-.812 1.711-1.538 2.669-2.117 1.28-.774 3.056-1.438 4.567-1.041 1.844.485 1.093 2.482.531 3.722-.664 1.468-2.058 3.678.4 4.107 1.014.176 2.075 0 3.097-.34-.286-.564-.383-1.24-.198-2.018.664-2.793 3.827-5.239 6.548-5.821 1.22-.261 4.124-.267 3.62 1.698-.46 1.798-2.692 3.242-4.139 4.189a23.393 23.393 0 0 1-3.225 1.766c.067.083.14.164.221.244 1.924 1.873 4.11.302 5.218-1.567.275-.464 2.513-.941 2.336-.413-.392 1.168-.673 2.368-.94 3.57 1.62-.844 3.248-1.669 4.883-2.483-1.051-2.906 1.362-6.168 4.034-7.132 1.432-.517 3.924-1.004 5.064.365 1.225 1.473-.388 3.245-1.622 4.038-1.529.982-3.27 1.722-4.945 2.497a3.033 3.033 0 0 0 1.375 1.378c2.32 1.184 4.503-.519 6.185-2.02a25.571 25.571 0 0 0 3.022-3.242c-.002-.594.016-1.138.028-1.57.103-3.847.625-7.82 1.733-11.512.683-2.278 1.535-5.219 3.526-6.74 1.388-1.06 3.468-1.43 4.872-.236 1.1.936.544 2.461.221 3.683-.637 2.41-1.604 4.745-2.662 6.997-1.437 3.06-3.158 6.224-5.321 8.983.014.376.036.752.072 1.127.11 1.155.273 2.778 1.173 3.633.201.19.852.364.684.44.273-.085.63-.389.852-.553 1-.747 1.866-1.699 2.672-2.645.399-.467.79-.949 1.176-1.44-.475-3.693.443-7.825 1.544-11.07 1.042-3.072 2.77-7.582 6.173-8.752 1.005-.346 2.459-.574 3.172.437.478.68.258 1.625.096 2.384-.703 3.283-2.404 6.452-4.018 9.365-1.37 2.476-2.876 4.924-4.605 7.187.176 1.393.561 2.708 1.25 3.823.222.36.48.66.836.89.15.098.534.121.44.165.646-.19 1.382-1.107 1.808-1.554 1.61-1.693 2.889-3.69 4.09-5.682.36-.595 2.51-.702 2.335-.412-1.075 1.778-2.407 3.95-2.442 6.105-.013.823.283 2.037 1.326 2.044 1.092.007 2.352-1.384 3.03-2.103 1.1-1.166 1.942-2.535 2.584-3.993.16-.433.33-.863.513-1.289.246-.571 2.498-.873 2.336-.412-.14.395-.3.794-.475 1.192-1.039 2.778-1.65 5.722-2.315 8.631 1.663-.368 3.4-.675 4.84-1.582.372-.235 1.23-.596 1.674-.448zm-11.907 11.991c1.352-2.674 2.129-5.54 2.802-8.44-.593.193-1.178.411-1.745.676-2.52 1.178-4.883 3.077-6.476 5.363-.956 1.375-1.826 3.324-1.089 4.983.711 1.6 2.486 1.842 3.838.887 1.201-.847 2.02-2.182 2.67-3.469zm-9.061-26.202c-.467 1.802-.893 4.008-.967 6.2 2.54-3.757 4.67-7.94 6.003-12.093.27-.84.606-1.809.543-2.707-.027-.363-.078-.64-.336-.914-.03-.032-.192-.125-.331-.205a.481.481 0 0 1-.02.022c-2.456 2.826-3.949 6.061-4.892 9.697zm-7.821-5.428c-1.085 3.255-1.627 6.668-1.906 10.08a73.12 73.12 0 0 0-.068.933c2.376-3.829 4.437-8.071 5.59-12.43.337-1.27.851-2.656-.408-3.52-.168-.115-.456-.197-.514-.282-.138.134-.28.306-.338.37-.364.411-.652.904-.914 1.383-.6 1.1-1.047 2.28-1.442 3.466zM74.533 57.928c.952-2.237 1.491-4.582 2.015-6.933-.672.372-1.343.744-2.008 1.128-3.105 1.792-8.081 4.388-8.127 8.53-.024 2.213 2.124 3.626 4.108 2.52 1.953-1.087 3.167-3.26 4.012-5.245zm13.816-18.079c-1.293 1.094-2.13 3.21-1.798 4.947.76-.375 1.522-.748 2.285-1.12.964-.471 1.983-.964 2.438-2.008.852-1.956-1.496-3.028-2.925-1.819zM74.252 41.1c-1.163 1.109-2.63 3.039-2.089 4.685.24-.125.47-.253.694-.378 1.6-.9 3.54-2.115 4.477-3.756.248-.435.502-1.001.15-1.455-.92-1.189-2.502.208-3.232.903zM44.32 45.343c1.283-1.342 2.329-2.888 3.633-4.211a.38.38 0 0 1 .051-.04.356.356 0 0 1-.106-.06c-1.325-1.142-2.679-1.207-4.047-.114-1.05.839-2.014 2.138-2.112 3.52-.037.519.038 1.219.37 1.643.775.99 1.634-.136 2.21-.738zM35.593 30.46c-2.453 4.059-5.598 7.798-9.09 11.042a40.434 40.434 0 0 0-.822 4.165c.158-.173.312-.342.46-.493 1.033-1.054 2.049-2.126 3.14-3.119 1.668-1.514 3.933-3.395 6.365-3.044 2.208.318 1.883 2.102 1.123 3.65-.586 1.193-2.636 3.838-.144 3.898 1.597.039.057 1.45-.897 1.427-1.82-.044-3.224-.786-2.51-2.75.354-.973 2.385-3.48 1.748-4.517-.892-1.456-4.601 2.574-5.194 3.165-1.535 1.534-3.019 3.545-5.017 4.505-.429.206-1.724.397-1.668-.399.07-1.006.223-2.005.405-2.996.065-.35.132-.7.202-1.05-3.473 2.827-7.566 5.4-12.041 5.9-4.154.466-9.546-1.197-11.133-5.426-1.583-4.215.738-9.14 3.09-12.588 2.85-4.176 6.9-7.95 11.642-9.857 2.712-1.09 11.12-2.67 10.798 2.401-.192 3.006-4.836 7.208-7.677 4.609-.69-.632 1.54-1.546 2.19-.951 1.013.926 2.466-1.349 2.798-2.107.878-2-.35-3.345-2.369-3.602-4.525-.58-8.872 2.641-11.879 5.65-4.357 4.362-11.12 15.346-2.768 19.4 6.388 3.1 12.935-1.198 17.899-5.924 1.076-4.495 2.627-8.946 4.667-13.045.999-2.008 2.187-4.147 3.955-5.59 1.103-.9 3.404-2.044 4.67-.84 2.128 2.025-.857 6.688-1.943 8.486zm-4.24-2.4c-1.144 2.222-2.06 4.558-2.87 6.92a105.99 105.99 0 0 0-1.041 3.175c.25-.276.494-.548.73-.813 2.644-2.983 5.215-6.333 6.804-10.015.443-1.027 1.01-2.385.8-3.533-.058-.312-.158-.643-.41-.848a.821.821 0 0 0-.073.025c-.25.1-.466.271-.673.438-1.456 1.163-2.431 3.03-3.266 4.651z"/></g></svg>